<svg width="43" height="40" viewBox="0 0 43 40" fill="none" xmlns="http://www.w3.org/2000/svg">
<rect width="43" height="40" rx="12" fill="#C1FD35"/>
<path d="M31.6305 10L29.193 18.8791C29.077 19.3647 28.9505 19.8934 28.8159 20.4661C28.6805 21.0387 28.5548 21.5829 28.4388 22.0961C28.3228 22.611 28.2255 23.0519 28.1485 23.4204H27.9166C27.8193 22.9543 27.7033 22.4305 27.5687 21.8481C27.4333 21.2657 27.2979 20.7077 27.1624 20.1741C27.027 19.6405 26.9111 19.2183 26.8146 18.9076L24.4046 10H17.0951C17.0562 13.2862 17.0278 15.7125 17.0237 16.9359C17.0237 17.1287 17.0213 17.9063 16.9629 18.9353C16.924 19.625 16.9045 19.9699 16.8462 20.3587C16.7699 20.8663 16.6394 21.7049 16.1828 22.6753C15.9509 23.169 15.6128 23.871 14.9 24.5559C14.6567 24.7901 14.1807 25.2684 13.3909 25.5751C12.7908 25.8077 12.0845 25.924 11.272 25.924H8.19545V14.076C9.04041 14.0792 9.70048 14.0784 10.1554 14.076C10.5503 14.0743 10.7936 14.0735 11.049 14.076C11.1512 14.0776 11.2542 14.0792 11.3807 14.0825C12.1729 14.102 12.6051 14.1126 13.0998 14.1589C13.3463 14.1817 13.6942 14.2216 14.1126 14.294V10.209C13.7882 10.157 13.4436 10.1122 13.0795 10.0789C12.6051 10.035 12.1575 10.0163 11.7431 10.0138C8.82795 10.0089 5.91438 10.0049 3 10V30H11.3296C13.4963 30 15.3298 29.6413 16.8291 28.9231C17.5306 28.5871 18.1533 28.1658 18.6983 27.6615C18.6983 27.6615 18.7015 27.659 18.7023 27.6574C18.7129 27.6476 18.725 27.6387 18.7356 27.6281C18.7656 27.5996 18.8126 27.5541 18.8669 27.5004C19.1434 27.2336 19.4816 26.8684 19.8157 26.3885C20.5431 25.3424 20.8755 24.2915 21.088 23.2805C21.0888 23.2772 21.0896 23.274 21.0904 23.2707C21.4942 21.5772 21.5137 20.2164 21.5202 19.8284C21.5202 19.8178 21.5202 19.8056 21.5202 19.7942C21.5275 19.5665 21.5291 19.3761 21.5299 19.2427C21.5299 19.2338 21.5299 19.2256 21.5299 19.2167C21.551 18.0999 21.5851 16.7277 21.6248 15.1236H21.6459C21.7424 15.5124 21.8535 15.9875 21.98 16.5503C22.1057 17.1132 22.2362 17.6663 22.3716 18.2097C22.5071 18.7531 22.623 19.2191 22.7195 19.6071L25.6509 30H29.8303L32.7325 19.6071C32.8485 19.1801 32.9791 18.6709 33.1242 18.0787C33.2694 17.4866 33.4048 16.9139 33.5305 16.3608C33.6562 15.8077 33.7478 15.3856 33.8062 15.0944H34.0381C34.0381 15.4051 34.0284 15.9094 34.0089 16.6081C33.9894 17.3068 33.9748 18.0836 33.9651 18.9369C33.9554 19.791 33.9505 20.6353 33.9505 21.4698V30H39V10H31.6281H31.6305Z" fill="#020202"/>
</svg>
